<svg version="1.0" xmlns="http://www.w3.org/2000/svg" width="256" height="256" viewBox="0 0 256 256">
<g transform="translate(0,256) scale(0.1,-0.1)" fill="#00ba7c" stroke="none">
<path d="M1140 2554 c-208 -27 -407 -101 -580 -217 -96 -64 -273 -241 -337
-337 -95 -142 -163 -302 -199 -470 -26 -119 -26 -381 0 -500 35 -162 104 -329
189 -455 56 -83 77 -108 170 -203 170 -172 396 -294 647 -348 119 -26 381 -26
500 0 338 73 626 268 817 551 85 126 154 293 189 455 26 119 26 381 0 500 -56
259 -167 463 -355 651 -185 185 -379 293 -631 350 -83 19 -331 33 -410 23z
m310 -169 c303 -46 582 -222 759 -479 48 -70 126 -240 150 -326 31 -116 44
-242 37 -360 -6 -107 -29 -237 -44 -252 -5 -5 -28 -2 -51 7 -124 43 -222 5
-331 -131 -37 -47 -70 -79 -77 -77 -9 4 -13 32 -13 96 l0 90 23 -21 c13 -12
37 -25 55 -28 26 -5 36 -1 63 25 57 58 60 55 -354 469 -204 204 -379 372 -387
372 -8 0 -183 -168 -387 -372 -414 -414 -411 -411 -354 -469 27 -26 37 -30 63
-25 18 3 42 16 55 28 l23 21 0 -90 c0 -64 -4 -92 -13 -96 -7 -2 -40 30 -77 77
-84 104 -149 146 -231 146 -31 0 -76 -7 -100 -15 -23 -9 -46 -12 -51 -7 -15
15 -38 145 -44 252 -7 118 6 244 37 360 24 86 102 256 150 326 247 359 672
544 1099 479z m47 -1047 l213 -213 0 -142 0 -143 -38 0 c-22 0 -59 -6 -84 -14
l-46 -13 -4 85 c-4 78 -7 87 -32 109 -26 22 -32 23 -226 23 -194 0 -200 -1
-226 -23 -25 -22 -28 -31 -32 -109 l-4 -85 -46 13 c-25 8 -62 14 -84 14 l-38
0 0 142 0 143 212 212 c117 117 215 213 218 213 3 0 100 -96 217 -212z m-127
-551 l0 -73 -45 -37 -45 -38 -45 38 -45 37 0 73 0 73 90 0 90 0 0 -73z m-944
1 c22 -24 71 -82 107 -130 72 -94 126 -143 197 -178 59 -30 148 -60 177 -60
33 0 73 43 73 77 0 47 -25 70 -101 94 -39 12 -80 30 -92 39 -20 17 -20 17 26
35 61 23 120 15 199 -27 119 -64 202 -160 214 -250 6 -45 -8 -155 -25 -202 -9
-22 -12 -23 -78 -14 -106 14 -209 45 -320 98 -166 78 -286 173 -397 311 -57
72 -144 216 -134 223 18 15 49 25 78 26 29 0 43 -8 76 -42z m1837 31 c12 -7
24 -13 25 -15 10 -8 -76 -150 -134 -223 -111 -138 -231 -233 -397 -311 -111
-53 -214 -84 -320 -98 -66 -9 -69 -8 -78 14 -17 47 -31 157 -25 202 12 90 95
186 214 250 79 42 138 50 199 27 46 -18 46 -18 26 -35 -12 -9 -53 -27 -92 -39
-76 -24 -101 -47 -101 -94 0 -34 40 -77 73 -77 29 0 118 30 177 60 71 35 125
84 197 178 105 138 141 172 181 172 18 0 43 -5 55 -11z"/>
<path d="M996 2269 l-26 -20 0 -249 0 -249 26 -20 c34 -27 64 -27 98 0 26 20
26 22 26 150 0 71 3 129 7 129 4 0 33 -25 65 -57 45 -44 64 -56 88 -56 24 0
43 12 88 56 32 32 61 57 65 57 4 0 7 -58 7 -129 0 -128 0 -130 26 -150 34 -27
64 -27 98 0 l26 20 0 249 0 249 -26 20 c-52 41 -77 30 -185 -76 l-99 -97 -99
97 c-108 106 -133 117 -185 76z"/>
<path d="M569 1991 c-44 -44 -35 -79 36 -151 l55 -55 -47 -48 -48 -47 -55 55
c-72 71 -107 80 -151 36 -53 -53 -43 -72 144 -258 186 -187 205 -197 258 -144
43 43 35 79 -31 146 l-50 51 48 47 47 47 45 -45 c61 -61 99 -68 141 -26 53 53
42 72 -139 253 -181 181 -200 192 -253 139z"/>
<path d="M1905 2010 c-11 -4 -89 -77 -172 -162 -176 -176 -186 -196 -134 -249
42 -42 80 -35 141 26 l45 45 47 -47 48 -47 -50 -51 c-66 -67 -74 -103 -31
-146 53 -53 72 -43 258 144 187 186 197 205 144 258 -44 44 -79 35 -151 -36
l-55 -55 -48 47 -47 48 55 55 c71 71 80 107 37 150 -31 31 -51 35 -87 20z"/>
</g>
</svg>
